# xmcd
#
# Track frame offsets:
# 150
# 22533
# 55954
# 91267
# 123211
# 154149
# 178750
# 218821
# 251535
# 282714
# 317633
#
# Disc length: 4696 seconds
#
#
# Revision: 0
# Processed by: cddbd v1.5.2PL0 Copyright (c) Steve Scherf et al.
# Submitted via: FreeRIP 2.945 
#
DISCID=9112560b
DTITLE=Herriot-J1977 - Wise-Wonderful10
DYEAR=1977
DGENRE=Jungle
TTITLE0=WW 1001
TTITLE1=WW 1002
TTITLE2=WW 1003
TTITLE3=WW 1004
TTITLE4=WW 1005
TTITLE5=WW 1006
TTITLE6=WW 1007
TTITLE7=WW 1008
TTITLE8=WW 1009
TTITLE9=WW 1010
TTITLE10=WW 1011
EXTD=All Things Wise and Wonderful 12 CDs\nby James Herriot - read by Christopher Timothy\nRennasance Audio - Jungle Country
EXTT0=
EXTT1=
EXTT2=
EXTT3=
EXTT4=
EXTT5=
EXTT6=
EXTT7=
EXTT8=
EXTT9=
EXTT10=
PLAYORDER=
